HIERARCHY
ROOT joint_0
{
	OFFSET 0.000000 0.000000 0.000000
	CHANNELS 6 Xposition Yposition Zposition Zrotation Yrotation Xrotation 
	JOINT joint_1
	{
		OFFSET 14.113007 -2.961990 123.953979
		CHANNELS 3 Zrotation Yrotation Xrotation
		JOINT joint_2
		{
			OFFSET 0.764000 -2.434006 113.871948
			CHANNELS 3 Zrotation Yrotation Xrotation
			JOINT joint_3
			{
				OFFSET 0.186996 -2.169998 113.753052
				CHANNELS 3 Zrotation Yrotation Xrotation
				JOINT joint_4
				{
					OFFSET 16.096001 -2.720001 160.853027
					CHANNELS 3 Zrotation Yrotation Xrotation
					JOINT joint_5
					{
						OFFSET 34.392006 -0.188995 92.567017
						CHANNELS 3 Zrotation Yrotation Xrotation
						End Site
						{
							OFFSET 0.000000 0.000000 0.000000
						}
					}
				}
				JOINT joint_6
				{
					OFFSET 9.183998 -36.684006 89.597046
					CHANNELS 3 Zrotation Yrotation Xrotation
					JOINT joint_7
					{
						OFFSET 0.486000 -164.365997 -28.984009
						CHANNELS 3 Zrotation Yrotation Xrotation
						JOINT joint_8
						{
							OFFSET 38.899002 -34.967010 -291.651978
							CHANNELS 3 Zrotation Yrotation Xrotation
							JOINT joint_9
							{
								OFFSET 41.714005 -45.890991 -258.857056
								CHANNELS 3 Zrotation Yrotation Xrotation
								End Site
								{
									OFFSET 0.000000 0.000000 0.000000
								}
							}
						}
					}
				}
				JOINT joint_10
				{
					OFFSET 8.867004 33.650002 90.817993
					CHANNELS 3 Zrotation Yrotation Xrotation
					JOINT joint_11
					{
						OFFSET 0.018997 164.299999 -29.368042
						CHANNELS 3 Zrotation Yrotation Xrotation
						JOINT joint_12
						{
							OFFSET 29.440994 30.887997 -293.216919
							CHANNELS 3 Zrotation Yrotation Xrotation
							JOINT joint_13
							{
								OFFSET 46.174011 54.490005 -256.422058
								CHANNELS 3 Zrotation Yrotation Xrotation
								End Site
								{
									OFFSET 0.000000 0.000000 0.000000
								}
							}
						}
					}
				}
			}
		}
	}
	JOINT joint_14
	{
		OFFSET -2.264000 -89.466995 -116.150024
		CHANNELS 3 Zrotation Yrotation Xrotation
		JOINT joint_15
		{
			OFFSET -16.400993 -17.452988 -493.781982
			CHANNELS 3 Zrotation Yrotation Xrotation
			JOINT joint_16
			{
				OFFSET -50.497004 -13.404022 -424.754013
				CHANNELS 3 Zrotation Yrotation Xrotation
				JOINT joint_17
				{
					OFFSET 198.546007 -19.341003 -89.309000
					CHANNELS 3 Zrotation Yrotation Xrotation
					End Site
					{
						OFFSET 0.000000 0.000000 0.000000
					}
				}
			}
		}
	}
	JOINT joint_18
	{
		OFFSET -0.867996 96.016006 -110.817993
		CHANNELS 3 Zrotation Yrotation Xrotation
		JOINT joint_19
		{
			OFFSET -10.130997 24.658998 -493.645020
			CHANNELS 3 Zrotation Yrotation Xrotation
			JOINT joint_20
			{
				OFFSET -48.871004 19.434999 -424.714005
				CHANNELS 3 Zrotation Yrotation Xrotation
				JOINT joint_21
				{
					OFFSET 195.579996 24.926001 -94.327003
					CHANNELS 3 Zrotation Yrotation Xrotation
					End Site
					{
						OFFSET 0.000000 0.000000 0.000000
					}
				}
			}
		}
	}
}
MOTION
Frames: 10
Frame Time: 0.016667
-2878.440918 962.115051 1146.822998 7.696153 -0.047698 -1.425141 0.876860 -0.662635 3.135663 0.751228 0.119196 -0.504262 0.720346 -0.193524 0.466160 -1.024523 -3.410970 2.671804 0.000000 0.000000 0.000000 -2.887682 10.116580 -3.536774 -2.871211 10.190343 -5.011336 6.983235 -74.802222 14.285874 0.000000 0.000000 0.000000 5.172481 5.402501 3.105573 -5.821016 6.319369 11.649394 -14.212413 -68.902977 -18.804700 0.000000 0.000000 0.000000 2.684573 3.942124 2.602973 3.067753 8.034758 1.464553 3.634711 -4.056486 1.168797 0.000000 0.000000 0.000000 -4.818940 -23.833279 8.295514 -3.561514 38.453978 -7.065015 -6.279107 -0.203438 -2.679490 0.000000 0.000000 0.000000 
-2870.677979 965.962463 1145.840942 7.393630 -0.118398 -1.519416 0.826549 -0.603014 3.147887 0.740499 0.110748 -0.511140 0.713407 -0.170041 0.464109 -0.977753 -3.527810 2.556314 0.000000 0.000000 0.000000 -2.928152 9.962464 -3.586290 -2.542862 10.011929 -4.585403 7.063106 -73.543493 13.082012 0.000000 0.000000 0.000000 5.026938 4.896715 2.906302 -5.539613 5.834749 11.509004 -14.137950 -68.171334 -19.872199 0.000000 0.000000 0.000000 2.859947 3.813318 2.473407 3.123675 9.365275 1.632729 3.850454 -4.501142 1.215185 0.000000 0.000000 0.000000 -4.961109 -23.777436 8.140724 -3.706345 34.304568 -6.227847 -6.280962 0.225683 -2.767945 0.000000 0.000000 0.000000 
-2862.568848 970.240295 1144.451050 6.962962 -0.258705 -1.638264 0.755445 -0.568031 3.195126 0.710073 0.130954 -0.516986 0.685115 -0.142629 0.492247 -0.918174 -3.523382 2.400601 0.000000 0.000000 0.000000 -2.927176 9.749898 -3.765022 -2.361513 9.797949 -4.566651 7.157282 -73.039349 12.564887 0.000000 0.000000 0.000000 4.968469 4.364428 2.843724 -5.215527 5.286169 11.229460 -14.003048 -67.048649 -21.093590 0.000000 0.000000 0.000000 3.015989 3.669206 2.344036 3.149029 10.916104 1.820371 4.079005 -5.050603 1.255316 0.000000 0.000000 0.000000 -5.548493 -23.138364 8.220352 -4.377806 29.271424 -5.994816 -6.981944 0.970296 -3.207061 0.000000 0.000000 0.000000 
-2854.092529 974.976807 1142.588013 6.305799 -0.515452 -1.825568 0.704742 -0.440950 3.361486 0.702616 0.109353 -0.565538 0.683708 -0.110287 0.537799 -0.846961 -3.430504 2.210397 0.000000 0.000000 0.000000 -2.918584 9.501261 -4.041645 -2.245387 9.555869 -4.804576 7.266212 -72.875896 12.361244 0.000000 0.000000 0.000000 4.947619 3.808225 2.849787 -4.837958 4.687008 10.876654 -13.796717 -65.519592 -22.477274 0.000000 0.000000 0.000000 3.213936 3.518351 2.240646 3.201904 12.741279 2.032652 4.386292 -5.682009 1.318531 0.000000 0.000000 0.000000 -6.389264 -21.805968 8.446145 -5.409259 23.283590 -5.835864 -7.808133 2.228290 -3.773648 0.000000 0.000000 0.000000 
-2845.036621 980.146790 1139.714966 5.422807 -0.931320 -2.104606 0.679319 -0.214971 3.638310 0.711756 0.024781 -0.664924 0.702251 -0.076732 0.565422 -0.779082 -3.226646 2.031254 0.000000 0.000000 0.000000 -2.909838 9.224299 -4.349336 -2.113660 9.275790 -5.153308 7.396030 -72.666606 12.179331 0.000000 0.000000 0.000000 4.903417 3.313928 2.940755 -4.399421 4.176943 10.529135 -13.528928 -64.227733 -24.037128 0.000000 0.000000 0.000000 3.511660 3.311071 2.109163 3.324586 15.058270 2.415557 4.872712 -6.514784 1.432634 0.000000 0.000000 0.000000 -6.925474 -20.048614 8.612515 -6.135938 17.781624 -5.311296 -7.992872 3.737662 -4.074895 0.000000 0.000000 0.000000 
-2834.739990 986.029907 1135.187012 4.471190 -1.470560 -2.416117 0.616080 -0.115794 3.843742 0.667724 -0.032849 -0.679073 0.664390 -0.053478 0.561237 -0.711001 -2.801669 1.857887 0.000000 0.000000 0.000000 -2.939109 8.955583 -4.810640 -1.911657 8.971477 -5.507271 7.564230 -72.317405 11.944830 0.000000 0.000000 0.000000 4.852440 2.931381 3.195292 -3.887583 3.830159 10.139317 -13.209006 -63.497849 -25.948685 0.000000 0.000000 0.000000 3.836171 3.061641 1.814625 3.432053 17.916440 3.100331 5.515504 -7.667053 1.573143 0.000000 0.000000 0.000000 -6.930957 -17.896262 8.480930 -6.194424 13.020553 -4.447895 -7.350031 5.263800 -3.994231 0.000000 0.000000 0.000000 
-2823.864014 992.346558 1129.649048 3.436899 -2.105091 -2.680241 0.532368 -0.062193 3.916645 0.593401 -0.071779 -0.617956 0.593657 -0.040165 0.529210 -0.643486 -2.266881 1.685917 0.000000 0.000000 0.000000 -2.966966 8.640822 -5.316963 -1.687780 8.605962 -5.953130 7.756521 -71.860264 11.731703 0.000000 0.000000 0.000000 4.767406 2.596101 3.515898 -3.283232 3.566557 9.781344 -12.805374 -62.984536 -28.094695 0.000000 0.000000 0.000000 4.221809 2.720987 1.350654 3.568016 21.227117 3.936026 6.339132 -8.881278 1.772182 0.000000 0.000000 0.000000 -6.596182 -15.566625 8.105372 -5.851827 8.978199 -3.526314 -6.393277 6.599369 -3.736479 0.000000 0.000000 0.000000 
-2814.179932 998.227356 1124.489014 2.360928 -2.725017 -2.731241 0.461585 0.075234 3.707602 0.520705 -0.098322 -0.565372 0.522708 -0.022008 0.467062 -0.602486 -1.923671 1.579548 0.000000 0.000000 0.000000 -2.916461 8.165218 -5.449106 -1.505997 8.105576 -6.626970 7.938094 -71.107899 11.482589 0.000000 0.000000 0.000000 4.518771 2.228403 3.683219 -2.580195 3.301038 9.704925 -12.287571 -62.356656 -30.042440 0.000000 0.000000 0.000000 4.775024 2.018228 0.669323 3.843007 24.990764 4.749848 7.456782 -9.759823 2.111582 0.000000 0.000000 0.000000 -6.106198 -14.042223 7.585926 -5.302961 7.197560 -2.923989 -5.593439 6.815760 -3.398195 0.000000 0.000000 0.000000 
-2806.569580 1003.340027 1119.990967 1.327258 -3.250769 -2.271033 0.377171 0.232566 2.715284 0.420228 -0.063484 -0.448326 0.422144 0.010820 0.368368 -0.632292 -1.919545 1.657007 0.000000 0.000000 0.000000 -2.789254 7.414754 -4.822408 -1.415651 7.383486 -7.825725 8.096627 -69.826712 11.205793 0.000000 0.000000 0.000000 3.957966 1.794128 3.595309 -1.727436 3.012994 10.146908 -11.609159 -61.518780 -31.630305 0.000000 0.000000 0.000000 5.549666 0.765707 -0.515702 4.302321 29.391861 5.532916 9.060884 -10.158173 2.675136 0.000000 0.000000 0.000000 -5.539941 -14.078346 6.714749 -4.496552 9.259941 -2.900036 -5.065708 4.828927 -2.899628 0.000000 0.000000 0.000000 
-2800.151367 1008.018738 1115.870972 0.210017 -3.735628 -1.539107 0.320199 0.434244 1.301510 0.332699 -0.023976 -0.280853 0.334683 0.045685 0.247039 -0.704016 -2.089043 1.847855 0.000000 0.000000 0.000000 -2.653410 6.499286 -3.781948 -1.331344 6.521946 -9.257095 8.275042 -68.200663 10.925195 0.000000 0.000000 0.000000 3.240431 1.337338 3.383329 -0.798681 2.733291 10.912524 -10.845976 -60.599620 -33.020478 0.000000 0.000000 0.000000 6.459474 -0.816519 -1.992647 4.903493 34.110269 6.285127 11.139791 -9.978932 3.458883 0.000000 0.000000 0.000000 -4.857249 -14.893518 5.712103 -3.451969 13.556652 -3.227236 -4.616251 1.761963 -2.295725 0.000000 0.000000 0.000000 
